{"scene":0,"asset":{"generator":"ImageToStl.com","version":"2.0"},"scenes":[{"name":"Scene","nodes":[0]}],"nodes":[{"name":"Node0","children":[1]},{"name":"Node1","mesh":0}],"materials":[{"name":"lambert1","pbrMetallicRoughness":{"baseColorFactor":[0.5,0.5,0.5,1.0],"metallicFactor":0.5,"roughnessFactor":0.8},"emissiveFactor":[0.0,0.0,0.0],"doubleSided":true}],"meshes":[{"name":"Mesh0","primitives":[{"indices":3,"material":0,"attributes":{"POSITION":0,"NORMAL":1,"TEXCOORD_0":2}}]}],"accessors":[{"bufferView":0,"componentType":5126,"count":4547,"type":"VEC3","min":[-0.6341272,-0.18064289,-0.0071110413],"max":[0.6341272,0.15951367,1.6533046]},{"bufferView":1,"componentType":5126,"count":4547,"type":"VEC3"},{"bufferView":2,"componentType":5126,"count":4547,"type":"VEC2"},{"bufferView":3,"componentType":5123,"count":72360,"type":"SCALAR"}],"bufferViews":[{"target":34962,"buffer":0,"byteLength":54564,"byteOffset":0},{"target":34962,"buffer":0,"byteLength":54564,"byteOffset":54564},{"target":34962,"buffer":0,"byteLength":36376,"byteOffset":109128},{"target":34963,"buffer":0,"byteLength":144720,"byteOffset":145504}],"buffers":[{"byteLength":290224,"uri":"data:application/octet-stream;base64,"}]}